<svg width="15" height="14" viewBox="0 0 15 14" fill="none" xmlns="http://www.w3.org/2000/svg">
<path d="M5.77048 11.3495C5.77452 11.4321 5.78057 11.5067 5.78057 11.5813C5.78057 12.0532 5.7846 12.527 5.78057 12.9988C5.77855 13.1803 5.7967 13.3436 5.98421 13.4364C6.16568 13.5271 6.29674 13.4364 6.43385 13.3355C7.24642 12.7266 8.06102 12.1217 8.86956 11.5088C9.01473 11.3979 9.15587 11.3454 9.34137 11.3454C10.3878 11.3535 11.4363 11.3535 12.4828 11.3454C12.6764 11.3434 12.876 11.3132 13.0595 11.2547C13.8115 11.0127 14.2854 10.3453 14.2874 9.53681C14.2914 7.93787 14.2894 6.33893 14.2874 4.74C14.2874 4.66943 14.2854 4.59684 14.2692 4.5303C14.2208 4.34682 14.0938 4.24802 13.9043 4.26415C13.7168 4.27826 13.6059 4.39319 13.5837 4.58273C13.5756 4.6533 13.5797 4.72387 13.5797 4.79444C13.5797 6.34498 13.5797 7.89754 13.5797 9.44809C13.5797 10.2022 13.1441 10.6377 12.3981 10.6377C11.2952 10.6377 10.1923 10.6317 9.09135 10.6438C8.94618 10.6458 8.77882 10.7002 8.66188 10.7849C8.00053 11.2648 7.34926 11.7628 6.69396 12.2528C6.6375 12.2951 6.57701 12.3334 6.49031 12.3919C6.49031 11.9302 6.49232 11.5209 6.49031 11.1115C6.48829 10.7486 6.37336 10.6357 6.00639 10.6357C4.90347 10.6357 3.80055 10.6357 2.69763 10.6357C1.95361 10.6357 1.52615 10.2082 1.52615 9.46422C1.52615 7.4096 1.52615 5.35296 1.52615 3.29834C1.52615 2.5523 1.95159 2.12888 2.69561 2.12686C4.72805 2.12686 6.75848 2.12686 8.79092 2.12686C8.86956 2.12686 8.95021 2.13492 9.02683 2.11879C9.21031 2.07847 9.31919 1.95547 9.31718 1.76997C9.31516 1.58649 9.21031 1.45946 9.02078 1.42518C8.94416 1.41107 8.86351 1.41913 8.78487 1.41913C6.75243 1.41913 4.722 1.41913 2.68956 1.41913C1.56043 1.41913 0.816406 2.16517 0.816406 3.29834C0.816406 5.35296 0.816406 7.4096 0.816406 9.46422C0.816406 10.5954 1.56244 11.3434 2.68956 11.3434C3.7078 11.3515 4.72402 11.3495 5.77048 11.3495ZM7.53274 7.80479C6.17778 7.80479 4.82282 7.80479 3.46987 7.80479C3.3993 7.80479 3.32671 7.79875 3.25816 7.80883C3.07266 7.83907 2.95975 7.94997 2.94966 8.1395C2.93958 8.34315 3.05653 8.46211 3.24606 8.50647C3.3126 8.5226 3.3872 8.51252 3.45777 8.51252C6.18181 8.51252 8.90787 8.51252 11.6319 8.51252C11.7105 8.51252 11.7932 8.5226 11.8678 8.50445C12.0493 8.46211 12.1582 8.3371 12.1541 8.1516C12.1501 7.96811 12.0432 7.8431 11.8557 7.81084C11.7872 7.79875 11.7146 7.80479 11.644 7.80479C10.2749 7.80479 8.90383 7.80479 7.53274 7.80479ZM5.07486 3.55038C4.51634 3.55038 3.95782 3.55038 3.39729 3.55038C3.10089 3.55038 2.9416 3.67942 2.94563 3.90928C2.94966 4.12906 3.10895 4.2581 3.38519 4.2581C4.50222 4.26012 5.62128 4.26012 6.73831 4.2581C7.02665 4.2581 7.19803 4.12099 7.194 3.89718C7.18997 3.67539 7.02261 3.55038 6.72622 3.55038C6.17778 3.55038 5.62733 3.55038 5.07486 3.55038ZM5.06276 6.38733C5.62128 6.38733 6.1798 6.38733 6.74033 6.38733C7.03068 6.38733 7.20005 6.25022 7.19602 6.02842C7.19198 5.81268 7.02866 5.6796 6.75243 5.6796C5.62733 5.67758 4.50021 5.67758 3.37511 5.6796C3.09887 5.6796 2.94362 5.81469 2.94765 6.03851C2.95168 6.25828 3.11097 6.38733 3.3872 6.38733C3.94572 6.38733 4.50424 6.38733 5.06276 6.38733Z" fill="#6AB1AB"/>
<path d="M5.77065 11.3493C4.72418 11.3493 3.70796 11.3493 2.69376 11.3493C1.56664 11.3473 0.820602 10.5992 0.820602 9.47009C0.820602 7.41547 0.820602 5.35883 0.820602 3.30421C0.820602 2.17104 1.56462 1.425 2.69376 1.425C4.7262 1.425 6.75662 1.425 8.78907 1.425C8.8677 1.425 8.94836 1.41896 9.02498 1.43105C9.21249 1.46533 9.31936 1.59236 9.32137 1.77584C9.32339 1.96134 9.21451 2.08434 9.03103 2.12466C8.95642 2.1408 8.87375 2.13273 8.79512 2.13273C6.76268 2.13273 4.73225 2.13273 2.69981 2.13273C1.95579 2.13273 1.53034 2.55817 1.53034 3.30421C1.53034 5.35883 1.53034 7.41547 1.53034 9.47009C1.53034 10.2141 1.9578 10.6396 2.70182 10.6416C3.80474 10.6416 4.90767 10.6416 6.01059 10.6416C6.37756 10.6416 6.49249 10.7545 6.4945 11.1174C6.49652 11.5267 6.4945 11.936 6.4945 12.3978C6.58121 12.3393 6.6417 12.301 6.69815 12.2586C7.35345 11.7687 8.00271 11.2707 8.66607 10.7908C8.78302 10.7061 8.95037 10.6496 9.09555 10.6496C10.1985 10.6375 11.3014 10.6436 12.4023 10.6436C13.1483 10.6436 13.5839 10.206 13.5839 9.45396C13.5859 7.90341 13.5839 6.35085 13.5839 4.80031C13.5839 4.72974 13.5798 4.65715 13.5879 4.5886C13.6101 4.39907 13.721 4.28414 13.9085 4.27002C14.098 4.25591 14.225 4.35269 14.2734 4.53617C14.2916 4.60271 14.2916 4.6753 14.2916 4.74587C14.2916 6.34481 14.2956 7.94374 14.2916 9.54268C14.2896 10.3512 13.8157 11.0186 13.0637 11.2606C12.8802 11.319 12.6785 11.3493 12.487 11.3513C11.4405 11.3594 10.392 11.3594 9.34557 11.3513C9.16007 11.3493 9.01893 11.4037 8.87375 11.5146C8.06118 12.1215 7.24659 12.7264 6.43402 13.3354C6.29691 13.4382 6.16585 13.5269 5.98438 13.4362C5.79686 13.3434 5.77871 13.1801 5.78073 12.9986C5.78476 12.5268 5.78275 12.053 5.78073 11.5812C5.78073 11.5066 5.77468 11.432 5.77065 11.3493Z" fill="#6AB1AB"/>
<path d="M9.67793 6.38718C9.45009 6.38718 9.22023 6.39121 8.99239 6.38516C8.76051 6.37911 8.6234 6.24604 8.62138 6.01618C8.61534 5.55242 8.6113 5.08666 8.62743 4.6229C8.63147 4.51806 8.698 4.39506 8.77261 4.31844C10.1538 2.92719 11.543 1.53996 12.9302 0.154756C13.1379 -0.0529246 13.3113 -0.0509082 13.523 0.156772C13.9666 0.594312 14.4062 1.03387 14.8437 1.47544C15.0554 1.68917 15.0514 1.86862 14.8357 2.08638C13.4605 3.46352 12.0874 4.84066 10.7042 6.20772C10.6054 6.30652 10.4361 6.35895 10.2929 6.37911C10.0893 6.40734 9.88158 6.38718 9.67793 6.38718ZM13.2166 0.892726C13.2105 0.894743 13.1924 0.896758 13.1823 0.908856C11.9241 2.16502 10.6659 3.42118 9.40775 4.68138C9.37145 4.71767 9.33314 4.77211 9.33314 4.81849C9.32709 5.09875 9.32911 5.37902 9.32911 5.67945C9.54889 5.67945 9.74649 5.66534 9.94005 5.68348C10.1538 5.70163 10.303 5.62904 10.4542 5.4758C11.6156 4.30029 12.7891 3.13487 13.9565 1.9654C14.015 1.90693 14.0695 1.84443 14.1138 1.79805C13.8033 1.48149 13.5109 1.18912 13.2166 0.892726Z" fill="#6AB1AB"/>
<path d="M7.5327 7.80476C8.90379 7.80476 10.2729 7.80476 11.644 7.80476C11.7145 7.80476 11.7871 7.79871 11.8557 7.81081C12.0452 7.84307 12.1501 7.96808 12.1541 8.15156C12.1581 8.33706 12.0492 8.46208 11.8678 8.50442C11.7932 8.52256 11.7105 8.51248 11.6319 8.51248C8.90783 8.51248 6.18177 8.51248 3.45773 8.51248C3.38716 8.51248 3.31256 8.52256 3.24602 8.50643C3.05649 8.46208 2.93954 8.34513 2.94962 8.13947C2.95769 7.94792 3.07262 7.83904 3.25812 7.80879C3.32667 7.79669 3.39926 7.80476 3.46983 7.80476C4.82479 7.80476 6.17976 7.80476 7.5327 7.80476Z" fill="#6AB1AB"/>
<path d="M5.07492 3.55017C5.62537 3.55017 6.17784 3.55017 6.72829 3.55017C7.02469 3.55017 7.19204 3.6772 7.19608 3.89698C7.20011 4.11877 7.02872 4.2579 6.74039 4.2579C5.62335 4.25991 4.5043 4.25991 3.38726 4.2579C3.11103 4.2579 2.95174 4.12885 2.94771 3.90907C2.94367 3.67921 3.10296 3.55017 3.39936 3.55017C3.95788 3.55017 4.5164 3.55017 5.07492 3.55017Z" fill="#6AB1AB"/>
<path d="M5.06273 6.38713C4.50421 6.38713 3.94569 6.38914 3.38516 6.38713C3.10892 6.38713 2.94963 6.25808 2.9456 6.0383C2.94157 5.81449 3.09884 5.68142 3.37306 5.6794C4.49816 5.67738 5.62528 5.67738 6.75038 5.6794C7.0246 5.6794 7.18994 5.81248 7.19397 6.02822C7.198 6.25203 7.02662 6.38713 6.73829 6.38713C6.18178 6.38713 5.62326 6.38713 5.06273 6.38713Z" fill="#6AB1AB"/>
</svg>
