<svg width="17" height="18" viewBox="0 0 17 18" fill="none" xmlns="http://www.w3.org/2000/svg">
<path d="M16.4167 12.4599C16.4163 13.5426 16.0462 14.5926 15.3677 15.4363C14.6892 16.2799 13.7429 16.8666 12.6855 17.0991L12.1805 15.5838C12.643 15.5077 13.0828 15.3298 13.4683 15.0631C13.8538 14.7965 14.1754 14.4476 14.4098 14.0417H12.4583C12.0384 14.0417 11.6357 13.8749 11.3387 13.5779C11.0418 13.281 10.875 12.8783 10.875 12.4583V9.29167C10.875 8.87174 11.0418 8.46902 11.3387 8.17208C11.6357 7.87515 12.0384 7.70834 12.4583 7.70834H14.7842C14.5911 6.17796 13.8461 4.77068 12.689 3.75054C11.532 2.7304 10.0425 2.16752 8.5 2.16752C6.95747 2.16752 5.46796 2.7304 4.31095 3.75054C3.15393 4.77068 2.40894 6.17796 2.21574 7.70834H4.54166C4.96159 7.70834 5.36431 7.87515 5.66125 8.17208C5.95818 8.46902 6.125 8.87174 6.125 9.29167V12.4583C6.125 12.8783 5.95818 13.281 5.66125 13.5779C5.36431 13.8749 4.96159 14.0417 4.54166 14.0417H2.16666C1.74674 14.0417 1.34401 13.8749 1.04708 13.5779C0.750143 13.281 0.583328 12.8783 0.583328 12.4583V8.5C0.583328 4.12763 4.12762 0.583336 8.5 0.583336C12.8724 0.583336 16.4167 4.12763 16.4167 8.5V12.4599ZM14.8333 12.4583V9.29167H12.4583V12.4583H14.8333ZM2.16666 9.29167V12.4583H4.54166V9.29167H2.16666Z" fill="#6AB1AB"/>
</svg>
