<svg width="16" height="16" viewBox="0 0 16 16" fill="none" xmlns="http://www.w3.org/2000/svg">
<path d="M4.81238 5.55476C4.81238 5.42372 4.81238 5.32621 4.81238 5.22869C4.81238 4.09504 4.83981 2.96139 4.80629 1.82774C4.77277 0.675808 5.63824 -0.0464355 6.62562 0.00232359C7.37224 0.0388929 8.12191 0.0114659 8.86853 0.00841847C9.07271 0.00841847 9.2129 0.108984 9.21594 0.310115C9.22204 0.511247 9.0849 0.617907 8.88072 0.624002C8.81368 0.627049 8.74968 0.627049 8.68264 0.627049C7.98478 0.627049 7.28691 0.627049 6.58904 0.627049C5.82109 0.630097 5.42797 1.02626 5.42797 1.80031C5.42797 3.36975 5.42797 4.93918 5.42797 6.50557C5.42797 7.24 5.83633 7.64836 6.56771 7.64836C8.27733 7.64836 9.9839 7.64531 11.6935 7.65445C11.8398 7.65445 12.0165 7.7215 12.1323 7.81597C12.6504 8.23347 13.1502 8.6723 13.6591 9.10199C13.7079 9.14161 13.7566 9.17817 13.8481 9.24827C13.8481 8.83077 13.8481 8.45593 13.8481 8.0811C13.8481 7.73978 13.8968 7.68493 14.232 7.64531C14.808 7.57827 15.1615 7.16686 15.1615 6.54214C15.1645 5.24393 15.1615 3.94571 15.1615 2.6475C15.1615 2.33666 15.1645 2.02278 15.1615 1.71194C15.1493 1.03236 14.747 0.630097 14.0644 0.627049C13.3422 0.620955 12.6199 0.627049 11.8946 0.624002C11.8124 0.624002 11.7301 0.627049 11.6478 0.61486C11.4802 0.59048 11.3857 0.492962 11.3827 0.31621C11.3796 0.136411 11.4832 0.0175609 11.6448 0.0175609C12.5803 0.0175609 13.5189 -0.0159611 14.4484 0.060225C15.2072 0.124221 15.7649 0.819038 15.771 1.5748C15.7832 3.28442 15.7832 4.99099 15.771 6.7006C15.7679 7.3619 15.2895 7.98967 14.6587 8.17252C14.4697 8.22737 14.4393 8.3127 14.4423 8.48031C14.4514 8.93133 14.4575 9.3854 14.4362 9.83642C14.4301 9.96137 14.3509 10.1503 14.2564 10.1899C14.1558 10.2326 13.9639 10.1716 13.8663 10.0894C13.2751 9.60482 12.6778 9.12637 12.1293 8.59916C11.791 8.27613 11.4345 8.21518 10.9713 8.29442C10.9713 8.37974 10.9713 8.47422 10.9713 8.56869C10.9713 9.73586 10.9743 10.9 10.9713 12.0672C10.9682 12.8991 10.566 13.4873 9.83457 13.7219C9.65173 13.7798 9.45059 13.8042 9.25556 13.8042C7.61298 13.8103 5.97041 13.8103 4.3248 13.8042C4.12976 13.8042 3.98653 13.8651 3.84025 13.9901C3.20639 14.5386 2.56947 15.0811 1.93255 15.6235C1.81065 15.7271 1.69485 15.8307 1.51505 15.7515C1.32306 15.6692 1.32916 15.5047 1.3322 15.3371C1.33525 14.8281 1.3322 14.3192 1.3322 13.7981C1.24383 13.7676 1.16155 13.7402 1.08232 13.7097C0.430164 13.469 0.00351888 12.8778 0.00351888 12.183C0.000471441 10.516 -0.002576 8.84905 0.00351888 7.1821C0.00656633 6.31358 0.664814 5.60048 1.53638 5.57C2.50547 5.53648 3.47456 5.55781 4.44365 5.55476C4.5564 5.55476 4.66306 5.55476 4.81238 5.55476ZM6.33916 10.8512C5.96737 10.8512 5.59863 10.8512 5.22989 10.8512C4.65087 10.8512 4.65087 10.8512 4.44365 11.3784C4.41622 11.4455 4.40098 11.543 4.34918 11.5735C4.24556 11.6314 4.09928 11.7076 4.00786 11.6771C3.91644 11.6466 3.85244 11.4942 3.80978 11.3845C3.78844 11.3297 3.83416 11.2443 3.86158 11.1742C4.2608 10.1259 4.65392 9.07761 5.06532 8.03538C5.1537 7.80987 5.20855 7.62398 5.02571 7.41675C4.94952 7.33142 4.90685 7.19734 4.88857 7.08153C4.83981 6.78593 4.81544 6.48728 4.77887 6.17035C4.71487 6.17035 4.65087 6.17035 4.58688 6.17035C3.62693 6.17035 2.66394 6.1673 1.70399 6.17035C1.06098 6.1734 0.631293 6.58175 0.628246 7.22781C0.619103 8.86124 0.622151 10.4977 0.628246 12.1311C0.631293 12.7345 0.981749 13.1094 1.576 13.1886C1.8777 13.2282 1.94169 13.2953 1.94169 13.6C1.94474 13.9809 1.94169 14.3649 1.94169 14.7885C2.03616 14.7215 2.10016 14.688 2.15197 14.6422C2.62737 14.2369 3.10582 13.8377 3.57208 13.4233C3.74883 13.2648 3.92863 13.1947 4.16938 13.1947C5.86071 13.2038 7.55204 13.2008 9.24641 13.1978C9.95342 13.1978 10.3648 12.7833 10.3648 12.0824C10.3648 10.9 10.3648 9.71757 10.3648 8.53516C10.3648 8.45593 10.3648 8.3767 10.3648 8.26699C8.9051 8.26699 7.4728 8.26699 6.03136 8.26699C6.05269 8.32794 6.07403 8.39803 6.10146 8.46507C6.45191 9.3915 6.80237 10.3149 7.14978 11.2413C7.22901 11.4546 7.16501 11.6314 6.9974 11.6923C6.81761 11.7594 6.65914 11.6771 6.57381 11.4668C6.48848 11.2657 6.41839 11.0645 6.33916 10.8512ZM5.49806 8.62049C5.28474 9.17817 5.09275 9.69015 4.89162 10.2113C5.30912 10.2113 5.687 10.2113 6.09536 10.2113C5.89423 9.67796 5.70528 9.17513 5.49806 8.62049Z" fill="#6AB1AB"/>
<path d="M9.98999 2.71147C9.98999 2.44635 9.98999 2.21169 9.98999 1.97704C9.98999 1.76981 10.0662 1.62049 10.2886 1.59916C10.4776 1.58392 10.5995 1.73934 10.6025 1.98313C10.6056 2.21169 10.6025 2.4433 10.6025 2.71147C10.7579 2.71147 10.9012 2.71147 11.0475 2.71147C11.4589 2.71147 11.8703 2.70843 12.2786 2.71147C12.5285 2.71452 12.6748 2.83032 12.6717 3.01927C12.6687 3.20516 12.5224 3.31487 12.2695 3.31792C11.9739 3.32096 11.6813 3.31792 11.3583 3.31792C11.3278 4.03711 11.1328 4.69536 10.7092 5.29266C11.0962 5.67664 11.5503 5.91434 12.0714 6.02709C12.1445 6.04233 12.2177 6.05147 12.2878 6.06671C12.4767 6.10633 12.5742 6.22518 12.5468 6.41716C12.5194 6.60306 12.3853 6.70667 12.2146 6.66401C11.8367 6.56954 11.4528 6.47507 11.0962 6.31965C10.8098 6.1947 10.5599 5.98138 10.2734 5.79549C9.87114 6.14899 9.40184 6.44154 8.8533 6.57868C8.71007 6.61525 8.56684 6.64572 8.42056 6.66706C8.22248 6.69448 8.0701 6.62744 8.04267 6.41412C8.01525 6.20689 8.1341 6.09718 8.33523 6.06366C8.87463 5.97833 9.35308 5.76806 9.76753 5.40846C9.8041 5.37494 9.84981 5.35361 9.90162 5.32009C9.46888 4.70755 9.26165 4.05235 9.24032 3.32096C8.91425 3.32096 8.61255 3.31792 8.31085 3.32096C8.10667 3.32096 7.95125 3.26001 7.93906 3.02841C7.92687 2.82118 8.04877 2.71757 8.31085 2.71452C8.77102 2.71147 9.23118 2.71452 9.69134 2.71452C9.77972 2.71147 9.86809 2.71147 9.98999 2.71147ZM9.86504 3.33315C9.87723 3.86036 10.0052 4.33271 10.3039 4.79288C10.5812 4.32052 10.7427 3.85731 10.7183 3.33315C10.4227 3.33315 10.1546 3.33315 9.86504 3.33315Z" fill="#6AB1AB"/>
<path d="M10.2978 0.617972C10.118 0.605783 10.0114 0.511312 9.99613 0.328465C9.98394 0.157809 10.1272 0.0115313 10.2948 0.00848389C10.4624 0.00848389 10.6148 0.157809 10.5995 0.322371C10.5873 0.505217 10.4837 0.605783 10.2978 0.617972Z" fill="#6AB1AB"/>
</svg>
