<svg width="15" height="16" viewBox="0 0 15 16" fill="none" xmlns="http://www.w3.org/2000/svg">
<path d="M11.7291 4.51006C12.5073 4.16072 13.1181 4.26322 13.5302 4.78619C13.9569 5.32798 13.8837 5.90533 13.2645 6.71907C13.3147 6.77137 13.3691 6.82785 13.434 6.89269C13.5197 6.8153 13.5657 6.7358 13.6285 6.72325C13.7582 6.69815 13.9318 6.65213 14.0239 6.71279C14.1787 6.8153 14.1431 6.98683 14.0113 7.12071C13.7896 7.34663 13.5657 7.57046 13.3419 7.79429C12.8608 8.27542 12.3734 8.74818 11.9069 9.23977C11.8107 9.34017 11.7374 9.50752 11.7374 9.6435C11.7249 11.1329 11.7312 12.6202 11.7291 14.1096C11.7291 14.7456 11.4028 15.074 10.7689 15.074C7.50143 15.074 4.23602 15.074 0.968533 15.074C0.330514 15.074 0 14.7497 0 14.1201C0 9.72926 0 5.33635 0 0.945523C0 0.330515 0.332607 0.00209186 0.949707 0C4.22557 0 7.50142 0 10.7773 0C11.3944 0 11.727 0.330515 11.727 0.945523C11.7312 2.12115 11.7291 3.30305 11.7291 4.51006ZM11.1204 8.75654C11.0137 8.89042 10.9467 8.99293 10.8631 9.07869C9.85896 10.087 8.85486 11.0952 7.84449 12.0973C7.74408 12.1977 7.6102 12.2876 7.47632 12.3253C7.18346 12.4089 6.87387 12.4382 6.58101 12.5219C6.22539 12.6244 5.81329 12.5805 5.55181 12.934C5.44721 13.0742 5.28823 13.1202 5.1418 12.9779C4.9891 12.8294 5.01838 12.6641 5.1669 12.5428C5.36772 12.3776 5.44931 12.1684 5.48696 11.9194C5.52461 11.6538 5.61038 11.3965 5.64803 11.1308C5.71707 10.6622 5.93253 10.3045 6.27559 9.96773C7.86332 8.41139 9.42803 6.83203 10.9927 5.25058C11.0952 5.14808 11.1664 4.96609 11.1685 4.81966C11.1831 3.55408 11.1768 2.2885 11.1768 1.02292C11.1768 0.619192 11.112 0.556436 10.7083 0.556436C7.47841 0.556436 4.24858 0.556436 1.01874 0.556436C0.635927 0.556436 0.562712 0.627559 0.562712 1.00828C0.562712 5.36354 0.562712 9.7188 0.562712 14.0741C0.562712 14.4422 0.635926 14.5175 0.997819 14.5175C4.24648 14.5175 7.49515 14.5175 10.7438 14.5175C11.1015 14.5175 11.1768 14.4401 11.1768 14.0699C11.1768 12.7855 11.1768 11.5011 11.1768 10.2167C11.1768 10.1351 11.1706 10.0556 11.1664 9.97401C11.1475 9.99074 11.1287 10.0096 11.1099 10.0263C11.0032 9.94472 10.8379 9.88406 10.8045 9.77947C10.7731 9.68324 10.8526 9.51589 10.9363 9.42594C11.0869 9.2565 11.25 9.10798 11.1204 8.75654ZM7.5851 11.4864C8.95109 10.1267 10.3108 8.77328 11.6663 7.42403C11.3379 7.0977 10.999 6.75881 10.6936 6.45549C9.33599 7.80684 7.97209 9.16446 6.61866 10.5116C6.93244 10.8296 7.26505 11.1643 7.5851 11.4864ZM12.1077 7.01611C12.4382 6.69187 12.7625 6.39692 13.0574 6.07687C13.3147 5.79865 13.3022 5.39492 13.0616 5.11043C12.8357 4.84267 12.4027 4.74435 12.1286 4.96609C11.75 5.2715 11.4174 5.63339 11.0701 5.96391C11.4383 6.33417 11.7688 6.67305 12.1077 7.01611ZM5.94299 12.1537C6.34881 12.0659 6.69187 11.9906 7.01193 11.9194C6.72744 11.6308 6.45968 11.3588 6.17518 11.0701C6.10197 11.4111 6.03084 11.75 5.94299 12.1537ZM12.8399 7.06213C12.501 7.41566 12.1851 7.74408 11.8692 8.07251C11.6998 8.24822 11.6914 8.28169 11.7626 8.50343C12.1663 8.10179 12.5867 7.68342 13.0156 7.25877C12.9821 7.21903 12.934 7.16464 12.8399 7.06213Z" fill="#6AB1AB"/>
<path d="M5.86351 2.22989C7.03495 2.22989 8.2064 2.22571 9.37575 2.23826C9.50126 2.24035 9.66443 2.31566 9.74183 2.41189C9.84851 2.54367 9.72091 2.74658 9.53682 2.78215C9.4657 2.7947 9.3883 2.78842 9.31509 2.78842C7.02031 2.78842 4.72344 2.78842 2.42867 2.78842C2.34499 2.78842 2.24249 2.81352 2.18392 2.77378C2.09397 2.71311 1.97264 2.60225 1.97892 2.52276C1.98728 2.42444 2.09815 2.31566 2.1902 2.24663C2.24458 2.20688 2.35127 2.23408 2.43494 2.23199C3.57501 2.22989 4.71926 2.22989 5.86351 2.22989Z" fill="#6AB1AB"/>
<path d="M5.83818 4.18349C4.70439 4.18349 3.5706 4.18349 2.43681 4.18349C2.38033 4.18349 2.32594 4.18349 2.26946 4.18349C2.08328 4.17722 1.96195 4.08936 1.96405 3.899C1.96614 3.72328 2.08328 3.62915 2.25691 3.62915C4.66464 3.62706 7.07238 3.62706 9.47802 3.62915C9.66629 3.62915 9.78344 3.73792 9.76879 3.92619C9.75206 4.13329 9.59726 4.18558 9.4069 4.18558C8.21663 4.1814 7.02636 4.18349 5.83818 4.18349Z" fill="#6AB1AB"/>
<path d="M5.83827 5.57885C4.70448 5.57885 3.57069 5.57885 2.4369 5.57885C2.37205 5.57885 2.3072 5.58303 2.24235 5.57676C2.07082 5.56211 1.95995 5.46798 1.96413 5.29226C1.96832 5.11655 2.08337 5.02241 2.257 5.02241C4.66473 5.02032 7.07247 5.02032 9.47811 5.02241C9.66638 5.02241 9.78352 5.13119 9.76888 5.31946C9.75215 5.52655 9.59735 5.57885 9.40908 5.57885C8.21672 5.57676 7.02854 5.57885 5.83827 5.57885Z" fill="#6AB1AB"/>
<path d="M3.77604 6.9745C3.29282 6.9745 2.81169 6.9724 2.32847 6.97659C2.12765 6.97868 1.96239 6.92011 1.96448 6.69418C1.96657 6.46826 2.13392 6.41597 2.33265 6.41806C3.28863 6.42015 4.24461 6.42015 5.2006 6.41806C5.39723 6.41806 5.57085 6.4599 5.57713 6.68582C5.58341 6.93057 5.40351 6.97868 5.19432 6.97659C4.72365 6.9724 4.2488 6.9745 3.77604 6.9745Z" fill="#6AB1AB"/>
</svg>
