<svg width="22" height="21" viewBox="0 0 22 21" fill="none" xmlns="http://www.w3.org/2000/svg">
<path d="M19.8666 2.91599C19.2827 2.20942 18.5493 1.64117 17.7193 1.25217C16.8892 0.86317 15.9833 0.663105 15.0666 0.666387C13.4983 0.618898 11.9713 1.17432 10.8 2.21839C9.62864 1.17432 8.1017 0.618898 6.53331 0.666387C5.61667 0.663105 4.7107 0.86317 3.88069 1.25217C3.05068 1.64117 2.31727 2.20942 1.73331 2.91599C0.716775 4.14905 -0.346692 6.38159 0.358375 10.02C1.48371 15.8301 9.92211 20.5981 10.2784 20.7933C10.4372 20.8819 10.616 20.9284 10.7978 20.9284C10.9797 20.9284 11.1585 20.8819 11.3173 20.7933C11.6757 20.5939 20.1141 15.8259 21.2373 10.02C21.9466 6.38159 20.8832 4.14905 19.8666 2.91599ZM19.1477 9.61465C18.352 13.7224 12.5685 17.5432 10.8 18.6291C8.30824 17.1251 3.18184 13.3491 2.45758 9.61465C1.91038 6.79225 2.65918 5.15279 3.38451 4.27385C3.76809 3.81104 4.24934 3.43885 4.79374 3.18398C5.33814 2.92912 5.9322 2.79789 6.53331 2.79972C7.17533 2.75157 7.81887 2.87061 8.40118 3.14522C8.9835 3.41983 9.48472 3.84065 9.85598 4.36665C9.94753 4.53512 10.0826 4.67594 10.2471 4.77446C10.4116 4.87297 10.5995 4.92557 10.7912 4.92677C10.9829 4.92797 11.1714 4.87772 11.3372 4.78127C11.5029 4.68482 11.6397 4.54569 11.7333 4.37839C12.1038 3.84829 12.6061 3.42391 13.1907 3.14708C13.7752 2.87025 14.4218 2.75053 15.0666 2.79972C15.669 2.79679 16.2645 2.92748 16.8103 3.18239C17.3561 3.43729 17.8385 3.81006 18.2229 4.27385C18.9461 5.15279 19.6949 6.79225 19.1477 9.61465Z" fill="#CFCFCF"/>
</svg>
