<svg width="17" height="17" viewBox="0 0 17 17" fill="none" xmlns="http://www.w3.org/2000/svg">
<path d="M16.7927 15.7908L12.5646 11.5628C13.7168 10.1536 14.2833 8.35553 14.1469 6.54041C14.0106 4.72528 13.1817 3.03201 11.8319 1.81084C10.4821 0.589663 8.71455 -0.0659837 6.89487 -0.0204862C5.0752 0.0250114 3.34263 0.768172 2.05552 2.05528C0.768416 3.34238 0.0252555 5.07496 -0.020242 6.89463C-0.0657396 8.7143 0.589907 10.4819 1.81108 11.8317C3.03225 13.1815 4.72553 14.0103 6.54065 14.1467C8.35578 14.2831 10.1539 13.7166 11.563 12.5644L15.7911 16.7924C15.9247 16.9215 16.1036 16.9929 16.2893 16.9912C16.4751 16.9896 16.6527 16.9151 16.784 16.7838C16.9154 16.6525 16.9899 16.4748 16.9915 16.2891C16.9931 16.1034 16.9217 15.9244 16.7927 15.7908ZM7.08355 12.75C5.96278 12.75 4.86719 12.4176 3.93531 11.795C3.00344 11.1723 2.27712 10.2873 1.84823 9.25184C1.41933 8.21639 1.30711 7.07701 1.52576 5.97779C1.74441 4.87856 2.28411 3.86886 3.07661 3.07636C3.8691 2.28386 4.87881 1.74417 5.97803 1.52552C7.07726 1.30687 8.21664 1.41909 9.25208 1.84798C10.2875 2.27688 11.1725 3.00319 11.7952 3.93507C12.4179 4.86695 12.7502 5.96254 12.7502 7.0833C12.7485 8.58568 12.151 10.026 11.0886 11.0884C10.0263 12.1507 8.58592 12.7483 7.08355 12.75Z" fill="#0C1A30"/>
</svg>
